<svg width="189" height="48" viewBox="0 0 189 48" fill="none" xmlns="http://www.w3.org/2000/svg">
<rect x="1" y="1.46783" width="187" height="45" rx="7" fill="#DE2E54"/>
<rect x="1" y="1.46783" width="187" height="45" rx="7" stroke="#DE2E54" stroke-width="2"/>
<path d="M32.313 24.0992C32.313 25.3248 32.1494 26.3599 31.8223 27.2047C31.5 28.0494 31.0215 28.6793 30.3867 29.0943L32.3569 32.0167H30.0571L28.5776 29.6143H28.4678C27.2275 29.6143 26.2754 29.1407 25.6113 28.1934C24.9473 27.2413 24.6152 25.8716 24.6152 24.0845C24.6152 22.3121 24.9473 20.9547 25.6113 20.0123C26.2754 19.065 27.2324 18.5914 28.4824 18.5914C29.7178 18.5914 30.665 19.0674 31.3242 20.0196C31.9834 20.9669 32.313 22.3267 32.313 24.0992ZM26.6514 24.0992C26.6514 25.3199 26.8052 26.2501 27.1128 26.8897C27.4204 27.5294 27.8721 27.8492 28.4678 27.8492C29.6689 27.8492 30.2695 26.5992 30.2695 24.0992C30.2695 21.5992 29.6738 20.3492 28.4824 20.3492C27.877 20.3492 27.4204 20.669 27.1128 21.3087C26.8052 21.9434 26.6514 22.8736 26.6514 24.0992ZM40.9487 29.4678L40.3335 26.7652H37.543L36.9277 29.4678H34.9355L37.5869 18.7159H40.2896L42.9482 29.4678H40.9487ZM39.96 25.0001L39.3887 22.5098C39.3545 22.3585 39.2764 21.98 39.1543 21.3746C39.0371 20.7642 38.9663 20.3565 38.9419 20.1514C38.8784 20.5714 38.7979 21.0352 38.7002 21.543C38.6025 22.046 38.3486 23.1983 37.9385 25.0001H39.96ZM45.8931 18.7598H48.625C49.7383 18.7598 50.5488 18.9771 51.0566 19.4117C51.5645 19.8414 51.8184 20.5274 51.8184 21.4698C51.8184 22.0899 51.6841 22.6099 51.4155 23.0298C51.147 23.4449 50.7808 23.6964 50.3169 23.7842V23.8575C50.9224 24.0089 51.3594 24.2921 51.6279 24.7071C51.8965 25.1221 52.0308 25.6739 52.0308 26.3624C52.0308 27.334 51.7695 28.0958 51.2471 28.6475C50.7295 29.1944 50.019 29.4678 49.1157 29.4678H45.8931V18.7598ZM47.7681 23.0665H48.6836C49.1035 23.0665 49.3989 22.9542 49.5698 22.7296C49.7407 22.5049 49.8262 22.1705 49.8262 21.7261C49.8262 21.2818 49.7285 20.9644 49.5332 20.774C49.3379 20.5787 49.0303 20.481 48.6104 20.481H47.7681V23.0665ZM47.7681 24.7291V27.7247H48.7715C49.1865 27.7247 49.4941 27.5977 49.6943 27.3438C49.8994 27.0899 50.002 26.6968 50.002 26.1646C50.002 25.2076 49.582 24.7291 48.7422 24.7291H47.7681ZM62.0801 18.7598V25.6885C62.0801 26.963 61.792 27.9371 61.2158 28.6109C60.6396 29.2798 59.8071 29.6143 58.7183 29.6143C57.6538 29.6143 56.8433 29.2823 56.2866 28.6182C55.73 27.9493 55.4517 26.963 55.4517 25.6592V18.7598H57.4292V25.8057C57.4292 27.168 57.8809 27.8492 58.7842 27.8492C59.2041 27.8492 59.5288 27.6758 59.7583 27.3292C59.9878 26.9825 60.1025 26.4893 60.1025 25.8497V18.7598H62.0801ZM65.9331 29.4678V18.7598H67.9253V27.7247H70.6865V29.4678H65.9331ZM77.2056 23.5279H80.4795V29.0211C79.5518 29.4166 78.5654 29.6143 77.5205 29.6143C76.2754 29.6143 75.3159 29.1407 74.6421 28.1934C73.9731 27.2462 73.6387 25.8814 73.6387 24.0992C73.6387 22.3804 74.022 21.0352 74.7886 20.0635C75.5601 19.0919 76.6367 18.606 78.0186 18.606C78.873 18.606 79.6885 18.8257 80.4648 19.2652L79.835 20.8912C79.2295 20.5396 78.6631 20.3638 78.1357 20.3638C77.3789 20.3638 76.7783 20.7032 76.334 21.3819C75.8945 22.0557 75.6748 22.9761 75.6748 24.1431C75.6748 25.3443 75.8335 26.2647 76.1509 26.9044C76.4731 27.544 76.9395 27.8638 77.5498 27.8638C77.8721 27.8638 78.1992 27.8223 78.5312 27.7393V25.2857H77.2056V23.5279ZM89.1812 29.4678L88.5659 26.7652H85.7754L85.1602 29.4678H83.168L85.8193 18.7159H88.522L91.1807 29.4678H89.1812ZM88.1924 25.0001L87.6211 22.5098C87.5869 22.3585 87.5088 21.98 87.3867 21.3746C87.2695 20.7642 87.1987 20.3565 87.1743 20.1514C87.1108 20.5714 87.0303 21.0352 86.9326 21.543C86.835 22.046 86.5811 23.1983 86.1709 25.0001H88.1924ZM102.41 22.9859L103.838 18.7598H105.925L103.384 25.1758V29.4678H101.421V25.2564L98.8867 18.7598H100.989L102.41 22.9859ZM116.011 24.0992C116.011 25.8716 115.679 27.2339 115.015 28.1861C114.351 29.1382 113.401 29.6143 112.166 29.6143C110.926 29.6143 109.974 29.1407 109.31 28.1934C108.646 27.2413 108.313 25.8716 108.313 24.0845C108.313 22.3121 108.646 20.9547 109.31 20.0123C109.974 19.065 110.931 18.5914 112.181 18.5914C113.416 18.5914 114.363 19.0674 115.022 20.0196C115.682 20.9669 116.011 22.3267 116.011 24.0992ZM110.35 24.0992C110.35 25.3199 110.503 26.2501 110.811 26.8897C111.119 27.5294 111.57 27.8492 112.166 27.8492C113.367 27.8492 113.968 26.5992 113.968 24.0992C113.968 21.5992 113.372 20.3492 112.181 20.3492C111.575 20.3492 111.119 20.669 110.811 21.3087C110.503 21.9434 110.35 22.8736 110.35 24.0992ZM124.742 29.4678H118.949V28.0762L122.369 20.4957H119.051V18.7598H124.632V20.1514L121.212 27.7247H124.742V29.4678ZM128.368 29.4678V18.7598H130.243V29.4678H128.368ZM134.506 29.4678V18.7598H136.499V27.7247H139.26V29.4678H134.506ZM142.9 29.4678V18.7598H144.775V29.4678H142.9ZM153.917 26.5162C153.917 27.5172 153.663 28.2838 153.155 28.816C152.652 29.3482 151.924 29.6143 150.972 29.6143C150.04 29.6143 149.246 29.4312 148.592 29.065V27.0948C149.393 27.6172 150.127 27.8785 150.796 27.8785C151.177 27.8785 151.463 27.7735 151.653 27.5635C151.849 27.3536 151.946 27.0679 151.946 26.7066C151.946 26.3502 151.832 26.0255 151.602 25.7325C151.373 25.4346 150.994 25.105 150.467 24.7437C150.008 24.4263 149.659 24.1236 149.419 23.8355C149.185 23.5425 149.002 23.2154 148.87 22.8541C148.743 22.4927 148.68 22.0728 148.68 21.5943C148.68 20.6763 148.934 19.9488 149.441 19.4117C149.954 18.8746 150.64 18.606 151.5 18.606C152.32 18.606 153.108 18.8355 153.865 19.2945L153.206 20.8912C152.972 20.7545 152.725 20.6324 152.466 20.525C152.212 20.4175 151.939 20.3638 151.646 20.3638C151.324 20.3638 151.075 20.4713 150.899 20.6861C150.728 20.8961 150.643 21.1841 150.643 21.5504C150.643 21.9117 150.745 22.2266 150.95 22.4952C151.16 22.7637 151.524 23.0689 152.042 23.4107C152.74 23.8795 153.226 24.358 153.499 24.8463C153.777 25.3345 153.917 25.8912 153.917 26.5162ZM163.849 29.4678H161.856V24.773H159.227V29.4678H157.235V18.7598H159.227V23.0152H161.856V18.7598H163.849V29.4678Z" fill="white"/>
</svg>
