<svg width="189" height="47" viewBox="0 0 189 47" fill="none" xmlns="http://www.w3.org/2000/svg">
<rect x="1" y="1" width="187" height="45" rx="7" fill="#DE2E54"/>
<rect x="1" y="1" width="187" height="45" rx="7" stroke="#DE2E54" stroke-width="2"/>
<path d="M32.313 23.6313C32.313 24.8569 32.1494 25.8921 31.8223 26.7368C31.5 27.5815 31.0215 28.2114 30.3867 28.6265L32.3569 31.5488H30.0571L28.5776 29.1465H28.4678C27.2275 29.1465 26.2754 28.6729 25.6113 27.7256C24.9473 26.7734 24.6152 25.4038 24.6152 23.6167C24.6152 21.8442 24.9473 20.4868 25.6113 19.5444C26.2754 18.5972 27.2324 18.1235 28.4824 18.1235C29.7178 18.1235 30.665 18.5996 31.3242 19.5518C31.9834 20.499 32.313 21.8589 32.313 23.6313ZM26.6514 23.6313C26.6514 24.8521 26.8052 25.7822 27.1128 26.4219C27.4204 27.0615 27.8721 27.3813 28.4678 27.3813C29.6689 27.3813 30.2695 26.1313 30.2695 23.6313C30.2695 21.1313 29.6738 19.8813 28.4824 19.8813C27.877 19.8813 27.4204 20.2012 27.1128 20.8408C26.8052 21.4756 26.6514 22.4058 26.6514 23.6313ZM40.9487 29L40.3335 26.2974H37.543L36.9277 29H34.9355L37.5869 18.248H40.2896L42.9482 29H40.9487ZM39.96 24.5322L39.3887 22.042C39.3545 21.8906 39.2764 21.5122 39.1543 20.9067C39.0371 20.2964 38.9663 19.8887 38.9419 19.6836C38.8784 20.1035 38.7979 20.5674 38.7002 21.0752C38.6025 21.5781 38.3486 22.7305 37.9385 24.5322H39.96ZM45.8931 18.292H48.625C49.7383 18.292 50.5488 18.5093 51.0566 18.9438C51.5645 19.3735 51.8184 20.0596 51.8184 21.002C51.8184 21.6221 51.6841 22.1421 51.4155 22.562C51.147 22.9771 50.7808 23.2285 50.3169 23.3164V23.3896C50.9224 23.541 51.3594 23.8242 51.6279 24.2393C51.8965 24.6543 52.0308 25.2061 52.0308 25.8945C52.0308 26.8662 51.7695 27.6279 51.2471 28.1797C50.7295 28.7266 50.019 29 49.1157 29H45.8931V18.292ZM47.7681 22.5986H48.6836C49.1035 22.5986 49.3989 22.4863 49.5698 22.2617C49.7407 22.0371 49.8262 21.7026 49.8262 21.2583C49.8262 20.814 49.7285 20.4966 49.5332 20.3062C49.3379 20.1108 49.0303 20.0132 48.6104 20.0132H47.7681V22.5986ZM47.7681 24.2612V27.2568H48.7715C49.1865 27.2568 49.4941 27.1299 49.6943 26.876C49.8994 26.6221 50.002 26.229 50.002 25.6968C50.002 24.7397 49.582 24.2612 48.7422 24.2612H47.7681ZM62.0801 18.292V25.2207C62.0801 26.4951 61.792 27.4692 61.2158 28.1431C60.6396 28.812 59.8071 29.1465 58.7183 29.1465C57.6538 29.1465 56.8433 28.8145 56.2866 28.1504C55.73 27.4814 55.4517 26.4951 55.4517 25.1914V18.292H57.4292V25.3379C57.4292 26.7002 57.8809 27.3813 58.7842 27.3813C59.2041 27.3813 59.5288 27.208 59.7583 26.8613C59.9878 26.5146 60.1025 26.0215 60.1025 25.3818V18.292H62.0801ZM65.9331 29V18.292H67.9253V27.2568H70.6865V29H65.9331ZM77.2056 23.0601H80.4795V28.5532C79.5518 28.9487 78.5654 29.1465 77.5205 29.1465C76.2754 29.1465 75.3159 28.6729 74.6421 27.7256C73.9731 26.7783 73.6387 25.4136 73.6387 23.6313C73.6387 21.9126 74.022 20.5674 74.7886 19.5957C75.5601 18.624 76.6367 18.1382 78.0186 18.1382C78.873 18.1382 79.6885 18.3579 80.4648 18.7974L79.835 20.4233C79.2295 20.0718 78.6631 19.896 78.1357 19.896C77.3789 19.896 76.7783 20.2354 76.334 20.9141C75.8945 21.5879 75.6748 22.5083 75.6748 23.6753C75.6748 24.8765 75.8335 25.7969 76.1509 26.4365C76.4731 27.0762 76.9395 27.396 77.5498 27.396C77.8721 27.396 78.1992 27.3545 78.5312 27.2715V24.8179H77.2056V23.0601ZM89.1812 29L88.5659 26.2974H85.7754L85.1602 29H83.168L85.8193 18.248H88.522L91.1807 29H89.1812ZM88.1924 24.5322L87.6211 22.042C87.5869 21.8906 87.5088 21.5122 87.3867 20.9067C87.2695 20.2964 87.1987 19.8887 87.1743 19.6836C87.1108 20.1035 87.0303 20.5674 86.9326 21.0752C86.835 21.5781 86.5811 22.7305 86.1709 24.5322H88.1924ZM102.41 22.5181L103.838 18.292H105.925L103.384 24.708V29H101.421V24.7886L98.8867 18.292H100.989L102.41 22.5181ZM116.011 23.6313C116.011 25.4038 115.679 26.7661 115.015 27.7183C114.351 28.6704 113.401 29.1465 112.166 29.1465C110.926 29.1465 109.974 28.6729 109.31 27.7256C108.646 26.7734 108.313 25.4038 108.313 23.6167C108.313 21.8442 108.646 20.4868 109.31 19.5444C109.974 18.5972 110.931 18.1235 112.181 18.1235C113.416 18.1235 114.363 18.5996 115.022 19.5518C115.682 20.499 116.011 21.8589 116.011 23.6313ZM110.35 23.6313C110.35 24.8521 110.503 25.7822 110.811 26.4219C111.119 27.0615 111.57 27.3813 112.166 27.3813C113.367 27.3813 113.968 26.1313 113.968 23.6313C113.968 21.1313 113.372 19.8813 112.181 19.8813C111.575 19.8813 111.119 20.2012 110.811 20.8408C110.503 21.4756 110.35 22.4058 110.35 23.6313ZM124.742 29H118.949V27.6084L122.369 20.0278H119.051V18.292H124.632V19.6836L121.212 27.2568H124.742V29ZM128.368 29V18.292H130.243V29H128.368ZM134.506 29V18.292H136.499V27.2568H139.26V29H134.506ZM142.9 29V18.292H144.775V29H142.9ZM153.917 26.0483C153.917 27.0493 153.663 27.8159 153.155 28.3481C152.652 28.8804 151.924 29.1465 150.972 29.1465C150.04 29.1465 149.246 28.9634 148.592 28.5972V26.627C149.393 27.1494 150.127 27.4106 150.796 27.4106C151.177 27.4106 151.463 27.3057 151.653 27.0957C151.849 26.8857 151.946 26.6001 151.946 26.2388C151.946 25.8823 151.832 25.5576 151.602 25.2646C151.373 24.9668 150.994 24.6372 150.467 24.2759C150.008 23.9585 149.659 23.6558 149.419 23.3677C149.185 23.0747 149.002 22.7476 148.87 22.3862C148.743 22.0249 148.68 21.605 148.68 21.1265C148.68 20.2085 148.934 19.481 149.441 18.9438C149.954 18.4067 150.64 18.1382 151.5 18.1382C152.32 18.1382 153.108 18.3677 153.865 18.8267L153.206 20.4233C152.972 20.2866 152.725 20.1646 152.466 20.0571C152.212 19.9497 151.939 19.896 151.646 19.896C151.324 19.896 151.075 20.0034 150.899 20.2183C150.728 20.4282 150.643 20.7163 150.643 21.0825C150.643 21.4438 150.745 21.7588 150.95 22.0273C151.16 22.2959 151.524 22.6011 152.042 22.9429C152.74 23.4116 153.226 23.8901 153.499 24.3784C153.777 24.8667 153.917 25.4233 153.917 26.0483ZM163.849 29H161.856V24.3052H159.227V29H157.235V18.292H159.227V22.5474H161.856V18.292H163.849V29Z" fill="white"/>
</svg>
